Coordinates
version=1
nRows=9
nColumns=24
inDegrees=yes

Units are S.I. units (second, meters, Newtons, ...)
Angles are in degrees.

endheader
time	pelvis_tilt	pelvis_list	pelvis_rotation	pelvis_tx	pelvis_ty	pelvis_tz	hip_flexion_r	hip_adduction_r	hip_rotation_r	knee_angle_r	ankle_angle_r	subtalar_angle_r	mtp_angle_r	hip_flexion_l	hip_adduction_l	hip_rotation_l	knee_angle_l	ankle_angle_l	subtalar_angle_l	mtp_angle_l	lumbar_extension	lumbar_bending	lumbar_rotation
      0.50400000	      1.14048449	      0.85038004	     10.49682382	     -0.86735744	      0.89312325	      0.29769492	     24.79198683	     -0.95443688	    -11.05284262	     -4.46061885	      3.21359370	      1.30452146	      3.34781037	    -18.38244964	      1.70188911	      4.33529811	     -8.58437244	     17.92533218	      2.67526855	      7.65378576	     -7.88448750	     -1.34525074	    -10.71126556
      0.50816667	      1.14748084	      0.77139099	     10.52215375	     -0.86123585	      0.89220256	      0.29796681	     24.87417260	     -0.75118123	    -10.90687083	     -5.02860875	      3.21537375	      1.51186423	      3.33520339	    -18.44671778	      1.51704889	      4.21130278	     -9.30465493	     18.08471150	      2.91371302	      7.74380685	     -7.85965036	     -1.21173217	    -10.47261829
      0.51233333	      1.10768232	      0.69442394	     10.54627501	     -0.85509967	      0.89125348	      0.29827506	     24.99500477	     -0.54712278	    -10.66452434	     -5.62539984	      3.06582853	      1.42841023	      3.34531024	    -18.39252333	      1.33228194	      3.96520287	    -10.16486967	     18.22437215	      3.33958652	      7.87788339	     -7.74826298	     -1.08786760	    -10.42964013
      0.51650000	      1.10685663	      0.59253334	     10.55598904	     -0.84888414	      0.89039007	      0.29860414	     25.06110978	     -0.30091383	    -10.41938459	     -6.24052591	      2.84956346	      1.28464595	      3.38190923	    -18.36752277	      1.11132938	      3.67392822	    -11.05488320	     18.33261174	      3.81722684	      8.06221124	     -7.67492297	     -0.92346517	    -10.34510779
      0.52066667	      1.15169480	      0.46908734	     10.57388956	     -0.84261678	      0.88964060	      0.29894187	     25.06159185	     -0.02299557	    -10.17359276	     -6.86377486	      2.55552309	      1.07955924	      3.50021143	    -18.37517346	      0.84208969	      3.32492883	    -11.96113475	     18.35083264	      4.40806961	      8.49624731	     -7.67923332	     -0.74243268	    -10.27682604
      0.52483333	      1.09342084	      0.37271237	     10.57864637	     -0.83637109	      0.88878190	      0.29926846	     25.20515525	      0.20677027	     -9.89721630	     -7.59187494	      2.23221127	      0.82537024	      3.56050909	    -18.27158864	      0.64973874	      3.19652055	    -12.88627866	     18.33265774	      4.61533669	      8.69800147	     -7.53981024	     -0.59585053	    -10.17827440
      0.52900000	      1.14456061	      0.24353881	     10.58326955	     -0.83003399	      0.88810693	      0.29962697	     25.19948553	      0.49991198	     -9.61940282	     -8.27804587	      1.82315813	      0.42104186	      3.72401537	    -18.23713997	      0.36754516	      2.81877563	    -13.90087876	     18.30570553	      5.25967788	      9.20349340	     -7.52510069	     -0.39847182	    -10.05278309
      0.53316667	      1.12728486	      0.13159213	     10.57420104	     -0.82370786	      0.88738531	      0.29998384	     25.28156081	      0.76397992	     -9.30649550	     -9.01509442	      1.37637848	      0.00728352	      3.87211332	    -18.12099228	      0.13749476	      2.58442618	    -14.93494180	     18.18263846	      5.59339310	      9.66452024	     -7.42357037	     -0.23147057	     -9.93064343
      0.53733333	      1.14629819	     -0.02102491	     10.55063854	     -0.81727563	      0.88675393	      0.30035060	     25.31398327	      1.07829651	     -9.03825083	     -9.73764491	      0.86358836	     -0.33401528	      5.43420855	    -18.02483272	     -0.15221340	      2.25641463	    -15.99270266	     17.92181090	      5.92889339	     14.57066409	     -7.33472507	      0.01701988	     -9.85489116
